<?xml version="1.0" encoding="UTF-8" standalone="no"?>
<!DOCTYPE svg PUBLIC "-//W3C//DTD SVG 1.1//EN" "http://www.w3.org/Graphics/SVG/1.1/DTD/svg11.dtd">
<svg xmlns="http://www.w3.org/2000/svg" version="1.1" viewBox="0.00 0.00 585.00 585.00">
<path fill="#b0cc34" d="
  M 122.53 487.60
  C 76.57 479.26 32.14 458.76 13.50 412.55
  C 4.45 390.13 1.81 365.03 2.69 341.25
  C 7.45 212.64 106.38 113.65 228.53 88.38
  Q 296.73 74.27 364.47 90.38
  C 488.77 119.94 585.63 226.44 581.43 358.25
  C 579.96 404.10 563.21 442.99 523.24 466.20
  C 504.84 476.89 483.29 483.55 462.24 487.49
  C 427.58 493.99 392.85 496.02 358.00 496.58
  Q 299.99 497.50 236.50 496.73
  Q 216.41 496.49 200.50 495.95
  Q 161.20 494.62 122.53 487.60
  Z
  M 497.37 329.71
  C 493.41 326.49 493.67 323.52 494.50 318.94
  Q 494.60 318.43 494.26 318.03
  L 466.95 285.53
  Q 466.60 285.11 466.07 285.22
  Q 458.27 286.86 451.35 283.15
  Q 450.88 282.90 450.51 283.27
  L 439.67 293.92
  Q 439.27 294.31 439.26 294.86
  Q 439.19 297.43 437.47 299.29
  Q 437.11 299.68 437.17 300.20
  L 438.88 316.48
  Q 438.93 316.93 439.35 317.08
  C 447.62 320.00 446.21 330.48 438.25 332.74
  C 431.64 334.61 423.87 328.22 427.34 321.19
  C 428.18 319.50 429.59 318.39 431.06 317.14
  Q 431.40 316.84 431.39 316.39
  L 431.11 300.81
  A 2.22 2.21 -1.5 0 0 428.81 298.64
  L 411.04 299.24
  Q 410.53 299.25 410.28 299.71
  C 407.45 305.04 400.03 305.63 395.81 302.01
  C 391.00 297.89 392.73 290.82 398.26 288.34
  Q 405.12 285.28 410.52 291.95
  Q 410.82 292.32 411.30 292.33
  L 428.67 292.85
  Q 429.21 292.86 429.60 292.47
  Q 431.39 290.65 433.98 290.52
  A 1.21 1.20 19.3 0 0 434.84 290.11
  L 445.07 278.78
  A 1.39 1.38 53.8 0 0 445.30 277.26
  Q 438.89 263.69 450.61 254.93
  Q 451.04 254.62 450.82 254.13
  L 444.32 239.81
  Q 444.08 239.30 443.52 239.20
  Q 440.80 238.71 439.64 236.15
  A 1.33 1.32 84.3 0 0 438.75 235.42
  L 418.94 230.57
  A 0.88 0.87 30.4 0 0 418.12 230.78
  C 413.00 235.46 404.02 234.46 401.42 227.93
  C 396.50 215.59 416.22 209.07 420.76 222.90
  Q 420.91 223.34 421.35 223.48
  L 440.46 229.73
  Q 440.98 229.90 441.48 229.66
  Q 444.11 228.36 447.01 229.23
  A 1.44 1.41 -49.8 0 0 448.06 229.13
  L 465.82 219.68
  Q 466.25 219.45 466.27 218.96
  C 466.69 207.75 482.34 205.91 485.75 215.73
  C 489.13 225.49 477.96 230.34 470.27 226.28
  Q 469.86 226.07 469.43 226.26
  L 451.31 234.27
  A 2.28 2.27 -26.3 0 0 450.23 237.45
  L 457.93 251.52
  Q 458.24 252.08 458.87 252.14
  C 460.68 252.32 462.80 252.04 464.29 252.25
  C 476.71 254.00 483.88 266.99 476.67 278.05
  Q 476.40 278.46 476.69 278.86
  L 501.36 313.14
  Q 501.65 313.55 502.16 313.51
  Q 505.13 313.32 507.88 314.44
  Q 508.38 314.64 508.83 314.35
  L 543.35 292.33
  A 1.44 1.43 -24.4 0 0 543.96 290.72
  Q 526.64 231.13 482.56 187.20
  C 377.45 82.46 197.82 85.27 96.14 192.83
  A 0.59 0.58 -44.6 0 0 96.13 193.63
  L 128.08 228.14
  Q 128.44 228.53 128.95 228.39
  Q 141.07 225.14 147.75 235.30
  A 0.87 0.87 0.0 0 0 148.51 235.69
  L 228.03 232.07
  A 0.90 0.90 0.0 0 0 228.85 231.46
  C 234.76 214.29 253.64 208.33 269.82 214.73
  A 0.86 0.85 34.6 0 0 270.70 214.57
  L 298.31 190.23
  A 5.88 5.88 0.0 0 0 298.43 181.50
  L 271.84 156.82
  A 1.84 1.84 0.0 0 0 269.99 156.43
  C 261.22 159.48 250.05 154.66 248.31 145.02
  C 245.50 129.43 263.98 121.90 275.29 130.49
  Q 283.75 136.90 279.59 148.83
  Q 279.43 149.30 279.77 149.67
  Q 292.49 163.43 305.24 177.17
  C 306.89 178.95 308.31 177.61 310.08 177.91
  Q 313.85 178.57 316.31 181.64
  Q 316.65 182.07 317.19 182.04
  L 357.05 180.19
  Q 357.60 180.16 357.84 179.66
  Q 363.30 168.42 375.89 169.89
  C 386.13 171.08 393.29 181.81 388.35 191.42
  C 382.16 203.47 364.09 202.90 358.15 190.94
  Q 357.85 190.34 357.25 190.32
  L 317.02 189.45
  Q 316.57 189.44 316.31 189.81
  Q 312.88 194.66 306.96 193.66
  A 1.31 1.30 27.1 0 0 305.80 194.03
  L 279.84 220.41
  A 0.66 0.66 0.0 0 0 279.79 221.29
  Q 293.97 238.66 280.68 256.85
  A 0.56 0.55 34.1 0 0 280.84 257.65
  L 302.46 270.99
  Q 302.86 271.24 303.30 271.06
  Q 308.00 269.17 311.95 272.24
  Q 312.42 272.60 312.99 272.45
  L 344.51 264.37
  Q 345.04 264.24 345.18 263.71
  Q 348.31 252.18 360.00 252.56
  C 374.28 253.03 378.78 272.10 364.70 277.55
  Q 355.30 281.19 347.68 273.38
  Q 347.33 273.02 346.84 273.11
  L 315.11 278.92
  Q 314.68 279.00 314.44 279.37
  L 312.02 283.18
  A 0.54 0.50 -37.3 0 0 311.95 283.60
  L 318.98 313.03
  Q 319.11 313.61 319.70 313.74
  C 327.52 315.43 332.68 322.32 330.32 330.15
  C 326.39 343.09 305.24 342.16 302.84 328.87
  Q 301.34 320.52 309.02 315.56
  A 0.86 0.84 70.0 0 0 309.40 314.72
  L 304.77 284.74
  A 0.93 0.91 6.2 0 0 304.18 284.02
  Q 299.60 282.30 299.00 277.40
  A 0.95 0.94 10.4 0 0 298.50 276.68
  L 273.29 263.45
  Q 272.90 263.24 272.49 263.43
  C 256.04 271.13 236.81 266.50 229.20 248.88
  A 0.82 0.81 78.6 0 0 228.47 248.39
  L 148.46 246.50
  Q 147.98 246.49 147.73 246.90
  Q 141.45 257.38 129.12 254.43
  Q 128.57 254.29 128.17 254.70
  L 74.77 309.23
  Q 74.45 309.56 74.66 309.98
  Q 81.03 322.33 75.20 334.99
  A 0.51 0.51 0.0 0 0 75.40 335.63
  L 100.87 351.37
  A 0.99 0.99 0.0 0 0 101.77 351.45
  Q 106.47 349.62 110.25 352.64
  Q 110.74 353.03 111.35 352.87
  L 142.90 344.82
  Q 143.39 344.69 143.52 344.21
  Q 145.93 335.19 154.25 333.43
  C 164.11 331.34 174.72 339.37 171.22 349.78
  C 167.65 360.39 153.67 362.02 146.28 353.85
  Q 145.89 353.43 145.32 353.53
  L 114.96 359.11
  A 5.30 5.30 0.0 0 0 110.76 365.55
  L 117.35 393.31
  Q 117.46 393.80 117.93 393.99
  C 122.69 395.90 125.86 396.69 128.12 401.61
  C 130.68 407.20 128.81 413.94 123.59 417.36
  C 112.89 424.36 97.63 415.95 102.03 402.35
  C 102.94 399.54 105.22 397.59 107.47 395.77
  A 0.86 0.85 66.0 0 0 107.77 394.97
  L 103.14 365.01
  A 0.88 0.87 5.0 0 0 102.55 364.31
  Q 98.01 362.80 97.54 358.01
  A 1.19 1.19 0.0 0 0 96.91 357.07
  L 69.73 342.82
  A 0.82 0.81 40.1 0 0 68.86 342.89
  Q 52.01 355.91 32.54 346.60
  A 0.27 0.26 14.1 0 0 32.16 346.82
  C 31.39 381.08 37.03 422.03 77.50 430.26
  C 95.71 433.97 115.40 432.51 134.24 430.02
  C 170.38 425.24 207.16 419.15 242.75 416.54
  C 283.86 413.53 326.58 416.29 367.13 421.63
  C 404.01 426.49 430.78 430.80 460.54 432.12
  A 0.58 0.57 -89.6 0 0 461.14 431.52
  L 460.69 415.82
  A 2.03 2.03 0.0 0 0 458.57 413.85
  L 440.77 414.54
  Q 440.25 414.56 439.97 415.00
  Q 436.70 420.08 431.12 419.61
  C 421.28 418.78 419.12 406.13 428.99 403.17
  Q 435.47 401.23 440.15 407.23
  Q 440.42 407.58 440.86 407.59
  L 457.96 408.17
  Q 458.64 408.19 459.14 407.72
  Q 460.90 406.04 463.35 405.93
  A 1.54 1.53 -70.3 0 0 464.42 405.42
  L 474.23 394.50
  Q 474.64 394.04 474.44 393.46
  C 471.05 383.31 478.02 373.97 488.06 371.88
  Q 488.59 371.77 488.70 371.24
  L 497.66 330.54
  A 0.85 0.84 26.2 0 0 497.37 329.71
  Z
  M 39.57 296.69
  C 46.81 294.78 53.97 295.06 60.83 298.06
  A 0.97 0.96 -53.6 0 0 61.87 297.90
  L 119.30 247.55
  A 0.90 0.89 58.1 0 0 119.53 246.54
  Q 117.43 241.54 119.41 236.52
  A 1.22 1.21 -57.9 0 0 119.11 235.19
  L 86.67 204.81
  A 0.84 0.84 0.0 0 0 85.45 204.89
  Q 52.06 245.21 38.82 295.95
  A 0.61 0.61 0.0 0 0 39.57 296.69
  Z
  M 512.67 324.09
  Q 511.79 329.33 506.79 331.10
  Q 506.31 331.26 506.24 331.76
  L 500.67 372.49
  A 1.27 1.25 -69.9 0 0 501.23 373.72
  Q 515.11 382.57 507.51 397.61
  Q 507.28 398.05 507.59 398.45
  L 524.07 419.65
  A 0.61 0.60 -35.5 0 0 524.88 419.78
  C 542.22 407.95 549.11 388.01 551.02 367.88
  Q 554.09 335.65 547.00 303.97
  A 0.61 0.61 0.0 0 0 546.11 303.57
  L 513.62 321.16
  Q 513.22 321.38 513.12 321.83
  Q 512.86 322.96 512.67 324.09
  Z
  M 500.66 403.38
  C 493.07 406.59 485.47 405.80 479.08 400.46
  A 0.59 0.59 0.0 0 0 478.29 400.49
  L 469.20 409.10
  Q 468.75 409.54 468.77 410.17
  Q 468.87 412.69 467.13 414.54
  Q 466.81 414.87 466.86 415.32
  L 468.50 431.71
  A 0.61 0.60 -1.6 0 0 469.08 432.25
  C 485.26 432.75 503.18 430.95 517.83 423.85
  A 0.92 0.91 56.4 0 0 518.11 422.42
  L 501.48 403.56
  Q 501.14 403.17 500.66 403.38
  Z"
/>
</svg>
