<?xml version="1.0" encoding="UTF-8" standalone="no"?>
<svg
   width="197"
   height="38"
   viewBox="0 0 197 38"
   version="1.1"
   id="svg3"
   sodipodi:docname="AlafiaAi-Logo-Text_Inkscape.svg"
   inkscape:export-filename="AlafiaAi-Logo-Text.svg"
   inkscape:export-xdpi="96"
   inkscape:export-ydpi="96"
   xml:space="preserve"
   inkscape:version="1.3 (0e150ed6c4, 2023-07-21)"
   xmlns:inkscape="http://www.inkscape.org/namespaces/inkscape"
   xmlns:sodipodi="http://sodipodi.sourceforge.net/DTD/sodipodi-0.dtd"
   xmlns="http://www.w3.org/2000/svg"
   xmlns:svg="http://www.w3.org/2000/svg"
   xmlns:rdf="http://www.w3.org/1999/02/22-rdf-syntax-ns#"
   xmlns:cc="http://creativecommons.org/ns#"
   xmlns:dc="http://purl.org/dc/elements/1.1/"><defs
     id="defs3" /><sodipodi:namedview
     id="namedview3"
     pagecolor="#505050"
     bordercolor="#eeeeee"
     borderopacity="1"
     inkscape:showpageshadow="0"
     inkscape:pageopacity="0"
     inkscape:pagecheckerboard="0"
     inkscape:deskcolor="#505050"
     showgrid="false"
     inkscape:zoom="5.6446701"
     inkscape:cx="98.499999"
     inkscape:cy="19.044514"
     inkscape:window-width="1920"
     inkscape:window-height="1007"
     inkscape:window-x="0"
     inkscape:window-y="0"
     inkscape:window-maximized="1"
     inkscape:current-layer="svg3" /><title
     id="title1">ohif-logo</title><g
     id="g2"
     transform="matrix(0.10725054,0,0,0.10725054,0.87252275,0.82954925)"
     inkscape:export-filename="AlafiaAi-Logo-Text.png"
     inkscape:export-xdpi="96"
     inkscape:export-ydpi="96"><path
       style="display:inline;fill:#b0cc34;fill-opacity:1"
       d="M 184.8,333.55596 C 97.40632,331.93933 56.352117,321.53431 29.1591,294.10945 6.1440216,270.89814 -2.9029401,233.40966 3.5900067,188.15716 22.747052,54.642376 167.61833,-29.982328 305.6,11.741886 401.26109,40.668799 465.24179,122.25968 465.1447,215.19999 c -0.0525,50.24215 -16.79838,80.282 -54.81336,98.32762 -28.9441,13.7397 -61.83113,18.68473 -133.53134,20.07832 -41.25999,0.80195 -46.08772,0.79933 -92,-0.05 z m -77.00493,-53.94583 c 5.38729,-0.67624 19.78729,-2.64431 32,-4.37349 68.08399,-9.63989 97.06363,-9.77748 165.00493,-0.78342 20.02668,2.65113 49.29389,5.98634 58.21494,6.63402 l 5.81494,0.42216 -0.51593,-6.5547 c -0.28376,-3.60509 -0.75959,-6.82582 -1.0574,-7.15717 C 366.53943,266.99963 352,268.04955 352,268.89924 c 0,1.09487 -4.56221,3.10075 -7.05239,3.10075 -4.89378,0 -8.36547,-5.21866 -6.58574,-9.89972 1.62495,-4.27392 9.26754,-5.60374 12.38811,-2.15555 2.08182,2.30038 14.25423,3.01662 18.22609,1.07244 4.5865,-2.24502 10.2811,-9.33133 9.72662,-12.10372 -1.11752,-5.58761 2.3138,-11.55237 8.49598,-14.76877 3.59868,-1.87228 3.59868,-1.87228 6.99078,-17.37496 3.39209,-15.50268 3.39209,-15.50268 1.7405,-18.91442 -0.98433,-2.03335 -1.44201,-4.07209 -1.13283,-5.04622 0.57397,-1.80842 -0.32316,-3.04488 -13.52604,-18.64219 -7.92893,-9.36689 -7.92893,-9.36689 -11.68062,-9.36689 -2.06344,0 -4.91636,-0.406 -6.33982,-0.90222 -2.48579,-0.86655 -2.74581,-0.74794 -6.57671,3 -5.6052,5.48382 -6.51927,7.9939 -5.86382,16.10222 0.38423,4.75312 0.83653,6.6 1.61634,6.6 2.82275,0 4.56528,6.25212 2.70916,9.72032 -2.35525,4.40082 -10.34923,4.38122 -12.95605,-0.0318 -1.88605,-3.19284 -1.73355,-5.14509 0.62044,-7.94265 3.0994,-3.68343 3.03621,-15.05534 -0.088,-15.83947 -3.53918,-0.88828 -14.10481,0.23702 -14.85774,1.58243 -1.86764,3.33728 -9.78168,3.28256 -12.33802,-0.0853 -1.25306,-1.65085 -1.44243,-6.09922 -0.3468,-8.14642 1.90687,-3.56303 9.51613,-4.07755 12.44473,-0.84148 1.71893,1.8994 13.72015,2.29399 17.77236,0.58435 4.46047,-1.88189 10.76541,-9.69624 9.82308,-12.17475 -1.95473,-5.14132 -0.58726,-11.80651 3.1085,-15.15112 2.1495,-1.94528 2.14904,-1.94971 -0.83011,-8.05978 -3.13657,-6.43291 -6.02589,-8.46552 -15.21691,-10.70495 -6.26057,-1.52542 -7.14798,-1.57401 -9.2,-0.50376 -8.81075,4.59534 -17.14767,-5.20177 -10.27491,-12.07453 3.66158,-3.66158 12.0892,-1.90327 13.59341,2.83608 0.61131,1.92604 13.69135,6.34062 18.56569,6.266 5.13321,-0.0786 17.16342,-6.74007 17.99957,-9.9669 1.96735,-7.59224 13.69859,-7.74637 15.95665,-0.20965 1.80251,6.01626 -2.34383,10.03222 -9.58618,9.28474 -3.8781,-0.40026 -5.2292,-0.10056 -11.16064,2.47558 -8.27151,3.59248 -8.32123,3.71514 -4.47554,11.0403 3.11087,5.92549 3.11087,5.92549 6.5506,5.93412 9.61112,0.0241 16.30463,9.9705 12.62929,18.76683 -1.13098,2.70682 -1.13098,2.70682 8.06878,15.37431 5.05987,6.96711 9.43881,13.069 9.73098,13.55974 1.62248,2.72515 6.02974,1.82537 13.33122,-2.72171 20.76074,-12.92897 20.6082,-12.80663 20.00665,-16.04675 -1.72525,-9.29271 -12.36772,-32.70906 -21.16613,-46.57132 C 343.05825,10.007594 180.93854,-8.0443676 84.359025,83.376189 76.648747,90.674609 76.89684,90.131715 79.8,93.352573 c 21.474,23.823947 22.75724,25.041187 25.8735,24.542877 3.9138,-0.62584 8.06913,0.82635 11.0299,3.8547 2.40459,2.45947 2.40459,2.45947 31.05059,1.14103 15.75531,-0.72514 29.99417,-1.3123 31.64191,-1.30481 2.77015,0.0126 3.12308,-0.25694 4.68369,-3.57698 3.79455,-8.07257 12.50122,-12.77461 22.56741,-12.18755 3.60415,0.2102 7.273,0.62091 8.153,0.91269 1.26389,0.41907 4.02536,-1.59423 13.14545,-9.583909 14.40887,-12.622931 14.30062,-12.154547 4.83749,-20.930068 -3.68938,-3.421305 -8.70484,-8.105605 -11.14546,-10.409554 -4.25986,-4.021326 -4.57491,-4.169591 -7.87104,-3.704132 -7.96502,1.124771 -15.36869,-4.62658 -15.36345,-11.934706 0.009,-12.466045 14.62899,-17.663626 23.49474,-8.352621 3.07801,3.232595 3.09531,3.287201 2.71679,8.577469 -0.38094,5.324162 -0.38094,5.324162 9.94464,16.45139 8.65807,9.330255 10.71965,11.147047 12.76569,11.249948 1.34206,0.06749 3.393,0.814062 4.55763,1.659036 2.90572,2.108181 32.62196,1.049094 34.30806,-1.22274 6.78747,-9.145374 18.86452,-9.515439 24.21378,-0.741958 7.91174,12.976291 -11.66565,25.545635 -21.98971,14.118139 -2.86775,-3.174252 -2.86775,-3.174252 -18.74244,-3.665691 -15.48787,-0.479465 -15.91977,-0.449451 -17.72428,1.231712 -1.06233,0.989709 -2.89678,1.723152 -4.30985,1.723152 -2.09234,0 -4.05951,1.602538 -13.15406,10.715843 -10.69378,10.71584 -10.69378,10.71584 -8.64377,13.40355 5.2215,6.84575 5.24505,19.06146 0.0478,24.80435 -1.15944,1.28117 -0.84993,1.6373 4.23052,4.86784 10.20085,6.48649 11.26046,7.00841 14.22849,7.00841 1.62699,0 3.65863,0.37488 4.51475,0.83306 1.19241,0.63816 4.50229,0.0632 14.14741,-2.45757 12.59082,-3.29063 12.59082,-3.29063 13.94126,-6.45612 2.85223,-6.68576 13.28885,-8.24008 18.73824,-2.79068 9.65584,9.65583 -4.37894,23.72456 -15.65642,15.69429 -2.62112,-1.86641 -2.62112,-1.86641 -15.12669,0.29935 -15.13569,2.62125 -15.6451,2.9847 -13.97453,9.97044 0.59283,2.47898 1.84854,7.80332 2.79047,11.83186 1.68496,7.20639 1.7618,7.34396 4.75958,8.52152 8.35326,3.28125 8.52949,14.97918 0.28578,18.96989 -11.49039,5.5624 -22.18811,-6.93034 -13.95966,-16.30202 2.32829,-2.65178 2.32829,-2.65178 0.51077,-14.34959 -1.66133,-10.69253 -2.00231,-11.84317 -3.96775,-13.38919 -1.18263,-0.93025 -2.15393,-2.29524 -2.15846,-3.0333 -0.006,-0.90485 -3.40905,-3.12267 -10.44929,-6.80908 -10.44107,-5.46714 -10.44107,-5.46714 -13.79177,-4.09434 -10.30585,4.22234 -24.9162,-0.60643 -30.33786,-10.02676 -1.99281,-3.46259 -1.06793,-3.37183 -45.6801,-4.48282 -19.86726,-0.49476 -19.86726,-0.49476 -22.43062,2.30378 -2.82955,3.08915 -7.1856,4.67406 -11.1345,4.05118 -2.41422,-0.3808 -3.1633,0.20803 -12.537614,9.85555 -5.483492,5.64331 -15.125768,15.49721 -21.42728,21.89756 -11.457296,11.63702 -11.457296,11.63702 -10.150847,14.76379 1.289904,3.08717 1.299264,11.97694 0.01685,15.9992 -0.683026,2.14229 18.635785,14.39821 21.544801,13.66809 0.988246,-0.24803 2.930674,-0.0557 4.316507,0.4274 2.128063,0.74185 4.432198,0.39857 14.824373,-2.20856 12.30468,-3.08693 12.30468,-3.08693 13.61513,-6.0464 3.46176,-7.81793 15.98042,-8.55309 20.46284,-1.20169 6.22955,10.21681 -6.90932,20.71494 -17.19219,13.73679 -2.99931,-2.03539 -8.69059,-1.51638 -26.493458,2.41602 -3.924784,0.86692 -3.401766,8.92409 1.690919,26.04883 0.202896,0.68226 1.616758,1.6917 3.141915,2.24321 10.896674,3.94028 6.926214,20.11631 -4.937606,20.11631 -9.887524,0 -15.148329,-10.12301 -8.937149,-17.19715 2.504815,-2.85283 2.504815,-2.85283 0.754393,-14.54947 -1.624496,-10.85519 -1.919798,-11.85487 -4.104816,-13.89598 -1.294916,-1.20963 -2.360479,-2.6849 -2.367917,-3.27837 -0.0074,-0.59346 -4.976821,-3.67055 -11.043074,-6.83796 -11.02955,-5.75893 -11.02955,-5.75893 -13.386476,-4.16579 -6.755515,4.56634 -14.92055,5.79585 -22.156926,3.33644 l -4.6,-1.56339 0.0047,8.07584 c 0.02066,35.37894 13.674636,55.02172 40.924279,58.87417 6.807168,0.96237 28.379821,0.32894 40.466076,-1.1882 z m 290.6081,0.0936 c 5.49573,-1.05401 14.89129,-3.93153 15.79817,-4.83841 0.90841,-0.90842 -13.03542,-15.26029 -14.60134,-15.02863 -5.97108,0.88336 -10.58706,0.44698 -13.5092,-1.27712 -3.07409,-1.81376 -3.07409,-1.81376 -6.90105,1.61333 -2.21727,1.9856 -3.86119,4.16434 -3.90835,5.17988 -0.0448,0.96403 -0.46248,1.9883 -0.92824,2.27616 -0.46576,0.28785 -0.66819,1.4791 -0.44984,2.64721 0.21834,1.16811 0.63196,4.24698 0.91915,6.84193 l 0.52217,4.7181 8.52768,-0.49057 c 4.69022,-0.2698 11.2291,-1.00865 14.53085,-1.64188 z m 24.39181,-10.55415 c 13.36426,-10.19342 19.84968,-33.20571 17.94284,-63.66678 -0.59822,-9.55627 -2.71585,-25.32751 -3.50701,-26.11866 -0.13951,-0.13951 -3.98352,1.79777 -8.54223,4.30507 -4.55872,2.50731 -10.53858,5.78507 -13.28858,7.28391 -3.95308,2.15457 -5,3.12086 -5,4.61491 0,1.13698 -1.00227,2.73309 -2.51615,4.00693 -2.28315,1.92115 -2.61217,2.7982 -3.55308,9.47112 -0.57031,4.04465 -1.59301,11.27093 -2.27265,16.0584 -1.23572,8.70448 -1.23572,8.70448 1.90138,11.74893 4.51787,4.38445 5.67143,9.01752 3.65455,14.67778 -1.11572,3.13121 -1.11572,3.13121 5.28755,11.4 7.31463,9.44566 6.40873,8.87627 9.89338,6.21839 z M 71.715546,154.29919 c 23.04001,-20.10081 23.04001,-20.10081 23.04001,-25.13579 0,-5.03497 0,-5.03497 -12.950361,-17.11922 L 68.854835,99.959939 65.184107,104.57997 C 51.475716,121.83353 40.437926,143.25379 33.25276,166.54688 l -1.896117,6.14689 5.321679,-0.42025 c 4.429568,-0.34979 9.664836,0.54776 11.859447,2.03322 0.07577,0.0513 10.505772,-8.95211 23.177777,-20.00755 z"
       id="path249211" /></g><text
     xml:space="preserve"
     style="font-size:12px;fill:#b0cc34;fill-opacity:1;stroke-width:0.102109"
     x="57.211369"
     y="23.571802"
     id="text1"><tspan
       sodipodi:role="line"
       id="tspan1"
       x="57.211369"
       y="23.571802"
       style="font-style:normal;font-variant:normal;font-weight:normal;font-stretch:normal;font-size:12px;font-family:Satoshi;-inkscape-font-specification:Satoshi;stroke-width:0.102109">ALAFIA</tspan></text><metadata
     id="metadata1"><rdf:RDF><cc:Work
         rdf:about=""><dc:title>ohif-logo</dc:title></cc:Work></rdf:RDF></metadata></svg>
