<?xml version="1.0" encoding="UTF-8" standalone="no"?>
<!DOCTYPE svg PUBLIC "-//W3C//DTD SVG 1.1//EN" "http://www.w3.org/Graphics/SVG/1.1/DTD/svg11.dtd">
<svg xmlns="http://www.w3.org/2000/svg" version="1.1" viewBox="0.00 0.00 200.00 200.00">
<g stroke-width="2.00" fill="none" stroke-linecap="butt">
<path stroke="#80a8ec" vector-effect="non-scaling-stroke" d="
  M 94.71 55.14
  A 12.46 12.46 0.0 0 0 82.25 42.68
  L 55.15 42.68
  A 12.46 12.46 0.0 0 0 42.69 55.14
  L 42.69 82.24
  A 12.46 12.46 0.0 0 0 55.15 94.70
  L 82.25 94.70
  A 12.46 12.46 0.0 0 0 94.71 82.24
  L 94.71 55.14"
/>
<path stroke="#80a8ec" vector-effect="non-scaling-stroke" d="
  M 156.9826 55.0593
  A 12.47 12.47 0.0 0 0 144.4691 42.6329
  L 117.4093 42.7274
  A 12.47 12.47 0.0 0 0 104.9829 55.2408
  L 105.0774 82.3207
  A 12.47 12.47 0.0 0 0 117.5909 94.7471
  L 144.6507 94.6526
  A 12.47 12.47 0.0 0 0 157.0771 82.1392
  L 156.9826 55.0593"
/>
<path stroke="#80a8ec" vector-effect="non-scaling-stroke" d="
  M 94.7571 117.5809
  A 12.47 12.47 0.0 0 0 82.3307 105.0674
  L 55.2509 104.9729
  A 12.47 12.47 0.0 0 0 42.7374 117.3993
  L 42.6429 144.4791
  A 12.47 12.47 0.0 0 0 55.0693 156.9926
  L 82.1491 157.0871
  A 12.47 12.47 0.0 0 0 94.6626 144.6607
  L 94.7571 117.5809"
/>
<path stroke="#80a8ec" vector-effect="non-scaling-stroke" d="
  M 157.03 117.49
  A 12.46 12.46 0.0 0 0 144.57 105.03
  L 117.49 105.03
  A 12.46 12.46 0.0 0 0 105.03 117.49
  L 105.03 144.57
  A 12.46 12.46 0.0 0 0 117.49 157.03
  L 144.57 157.03
  A 12.46 12.46 0.0 0 0 157.03 144.57
  L 157.03 117.49"
/>
<path stroke="#80a8ec" vector-effect="non-scaling-stroke" d="
  M 89.49 55.08
  A 7.09 7.09 0.0 0 0 82.40 47.99
  L 55.08 47.99
  A 7.09 7.09 0.0 0 0 47.99 55.08
  L 47.99 82.40
  A 7.09 7.09 0.0 0 0 55.08 89.49
  L 82.40 89.49
  A 7.09 7.09 0.0 0 0 89.49 82.40
  L 89.49 55.08"
/>
<path stroke="#80a8ec" vector-effect="non-scaling-stroke" d="
  M 151.98 55.24
  A 7.25 7.25 0.0 0 0 144.73 47.99
  L 117.55 47.99
  A 7.25 7.25 0.0 0 0 110.30 55.24
  L 110.30 82.24
  A 7.25 7.25 0.0 0 0 117.55 89.49
  L 144.73 89.49
  A 7.25 7.25 0.0 0 0 151.98 82.24
  L 151.98 55.24"
/>
<path stroke="#80a8ec" vector-effect="non-scaling-stroke" d="
  M 89.4662 117.5138
  A 7.25 7.25 0.0 0 0 82.2036 110.2765
  L 55.2036 110.3236
  A 7.25 7.25 0.0 0 0 47.9663 117.5862
  L 48.0138 144.7662
  A 7.25 7.25 0.0 0 0 55.2764 152.0035
  L 82.2764 151.9564
  A 7.25 7.25 0.0 0 0 89.5137 144.6938
  L 89.4662 117.5138"
/>
<path stroke="#80a8ec" vector-effect="non-scaling-stroke" d="
  M 151.98 117.73
  A 7.42 7.42 0.0 0 0 144.56 110.31
  L 117.72 110.31
  A 7.42 7.42 0.0 0 0 110.30 117.73
  L 110.30 144.57
  A 7.42 7.42 0.0 0 0 117.72 151.99
  L 144.56 151.99
  A 7.42 7.42 0.0 0 0 151.98 144.57
  L 151.98 117.73"
/>
</g>
<path fill="#ffffff" d="
  M 0.00 0.00
  L 200.00 0.00
  L 200.00 200.00
  L 0.00 200.00
  L 0.00 0.00
  Z
  M 94.71 55.14
  A 12.46 12.46 0.0 0 0 82.25 42.68
  L 55.15 42.68
  A 12.46 12.46 0.0 0 0 42.69 55.14
  L 42.69 82.24
  A 12.46 12.46 0.0 0 0 55.15 94.70
  L 82.25 94.70
  A 12.46 12.46 0.0 0 0 94.71 82.24
  L 94.71 55.14
  Z
  M 156.9826 55.0593
  A 12.47 12.47 0.0 0 0 144.4691 42.6329
  L 117.4093 42.7274
  A 12.47 12.47 0.0 0 0 104.9829 55.2408
  L 105.0774 82.3207
  A 12.47 12.47 0.0 0 0 117.5909 94.7471
  L 144.6507 94.6526
  A 12.47 12.47 0.0 0 0 157.0771 82.1392
  L 156.9826 55.0593
  Z
  M 94.7571 117.5809
  A 12.47 12.47 0.0 0 0 82.3307 105.0674
  L 55.2509 104.9729
  A 12.47 12.47 0.0 0 0 42.7374 117.3993
  L 42.6429 144.4791
  A 12.47 12.47 0.0 0 0 55.0693 156.9926
  L 82.1491 157.0871
  A 12.47 12.47 0.0 0 0 94.6626 144.6607
  L 94.7571 117.5809
  Z
  M 157.03 117.49
  A 12.46 12.46 0.0 0 0 144.57 105.03
  L 117.49 105.03
  A 12.46 12.46 0.0 0 0 105.03 117.49
  L 105.03 144.57
  A 12.46 12.46 0.0 0 0 117.49 157.03
  L 144.57 157.03
  A 12.46 12.46 0.0 0 0 157.03 144.57
  L 157.03 117.49
  Z"
/>
<path fill="#0151d9" d="
  M 94.71 82.24
  A 12.46 12.46 0.0 0 1 82.25 94.70
  L 55.15 94.70
  A 12.46 12.46 0.0 0 1 42.69 82.24
  L 42.69 55.14
  A 12.46 12.46 0.0 0 1 55.15 42.68
  L 82.25 42.68
  A 12.46 12.46 0.0 0 1 94.71 55.14
  L 94.71 82.24
  Z
  M 89.49 55.08
  A 7.09 7.09 0.0 0 0 82.40 47.99
  L 55.08 47.99
  A 7.09 7.09 0.0 0 0 47.99 55.08
  L 47.99 82.40
  A 7.09 7.09 0.0 0 0 55.08 89.49
  L 82.40 89.49
  A 7.09 7.09 0.0 0 0 89.49 82.40
  L 89.49 55.08
  Z"
/>
<path fill="#0151d9" d="
  M 157.0771 82.1392
  A 12.47 12.47 0.0 0 1 144.6507 94.6526
  L 117.5909 94.7471
  A 12.47 12.47 0.0 0 1 105.0774 82.3207
  L 104.9829 55.2408
  A 12.47 12.47 0.0 0 1 117.4093 42.7274
  L 144.4691 42.6329
  A 12.47 12.47 0.0 0 1 156.9826 55.0593
  L 157.0771 82.1392
  Z
  M 151.98 55.24
  A 7.25 7.25 0.0 0 0 144.73 47.99
  L 117.55 47.99
  A 7.25 7.25 0.0 0 0 110.30 55.24
  L 110.30 82.24
  A 7.25 7.25 0.0 0 0 117.55 89.49
  L 144.73 89.49
  A 7.25 7.25 0.0 0 0 151.98 82.24
  L 151.98 55.24
  Z"
/>
<rect fill="#ffffff" x="47.99" y="47.99" width="41.50" height="41.50" rx="7.09"/>
<rect fill="#ffffff" x="110.30" y="47.99" width="41.68" height="41.50" rx="7.25"/>
<path fill="#0151d9" d="
  M 94.6626 144.6607
  A 12.47 12.47 0.0 0 1 82.1491 157.0871
  L 55.0693 156.9926
  A 12.47 12.47 0.0 0 1 42.6429 144.4791
  L 42.7374 117.3993
  A 12.47 12.47 0.0 0 1 55.2509 104.9729
  L 82.3307 105.0674
  A 12.47 12.47 0.0 0 1 94.7571 117.5809
  L 94.6626 144.6607
  Z
  M 89.4662 117.5138
  A 7.25 7.25 0.0 0 0 82.2036 110.2765
  L 55.2036 110.3236
  A 7.25 7.25 0.0 0 0 47.9663 117.5862
  L 48.0138 144.7662
  A 7.25 7.25 0.0 0 0 55.2764 152.0035
  L 82.2764 151.9564
  A 7.25 7.25 0.0 0 0 89.5137 144.6938
  L 89.4662 117.5138
  Z"
/>
<path fill="#0151d9" d="
  M 157.03 144.57
  A 12.46 12.46 0.0 0 1 144.57 157.03
  L 117.49 157.03
  A 12.46 12.46 0.0 0 1 105.03 144.57
  L 105.03 117.49
  A 12.46 12.46 0.0 0 1 117.49 105.03
  L 144.57 105.03
  A 12.46 12.46 0.0 0 1 157.03 117.49
  L 157.03 144.57
  Z
  M 151.98 117.73
  A 7.42 7.42 0.0 0 0 144.56 110.31
  L 117.72 110.31
  A 7.42 7.42 0.0 0 0 110.30 117.73
  L 110.30 144.57
  A 7.42 7.42 0.0 0 0 117.72 151.99
  L 144.56 151.99
  A 7.42 7.42 0.0 0 0 151.98 144.57
  L 151.98 117.73
  Z"
/>
<rect fill="#ffffff" x="-20.75" y="-20.84" transform="translate(68.74,131.14) rotate(-0.1)" width="41.50" height="41.68" rx="7.25"/>
<rect fill="#ffffff" x="110.30" y="110.31" width="41.68" height="41.68" rx="7.42"/>
</svg>
